<svg data-v-0dd9719b="" version="1.0" xmlns="http://www.w3.org/2000/svg" xmlns:xlink="http://www.w3.org/1999/xlink" width="100%" height="100%" viewBox="0 0 340.000000 250.000000" preserveAspectRatio="xMidYMid meet" color-interpolation-filters="sRGB" style="margin: auto;">
    <rect x="0" y="0" width="100%" height="100%" fill="#ffffff" fill-opacity="1" class="background"></rect>
    <g fill="#00BD7E" class="bordersvg b-d1" transform="translate(74.69000244140625,70.1500015258789)">
        <polyline stroke="#00BD7E" stroke-width="3" fill-opacity="0" fill="#ffffff" points="100.30999755859375,30 100.30999755859375,10 10,10 10,109.69999694824219 100.30999755859375,109.69999694824219 100.30999755859375,89.69999694824219"></polyline>
        <polyline stroke="#00BD7E" stroke-width="3" fill-opacity="0" fill="#ffffff" points="90.30999755859375,10 90.30999755859375,0 0,0 0,99.69999694824219 10,99.69999694824219"></polyline>
        <g transform="translate(10,30)">
            <g>
                <rect data-gra="graph-name-bg" stroke-width="2" class="i-icon-bg" x="0" y="0" width="180.6199951171875" height="59.69999694824219" fill-opacity="0"></rect>
            </g>
            <g transform="translate(10,3)">
                <g data-gra="path-name" fill-rule="" class="tp-name" fill="url(#9049399f-2cd6-4988-95a2-d5dd8056511e)"><g transform="scale(1)">
                    <g>
                        <path d="M30.6-21.84Q34.26-20.82 36.27-18.12 38.28-15.42 38.28-11.52L38.28-11.52Q38.28-6.12 34.41-3.06 30.54 0 23.76 0L23.76 0 8.28 0Q6.54 0 5.55-0.96 4.56-1.92 4.56-3.66L4.56-3.66 4.56-38.64Q4.56-40.38 5.55-41.34 6.54-42.3 8.28-42.3L8.28-42.3 23.16-42.3Q29.76-42.3 33.51-39.39 37.26-36.48 37.26-31.26L37.26-31.26Q37.26-27.9 35.49-25.44 33.72-22.98 30.6-21.84L30.6-21.84ZM12.12-36.3L12.12-24.48 21.9-24.48Q29.88-24.48 29.88-30.42L29.88-30.42Q29.88-33.42 27.9-34.86 25.92-36.3 21.9-36.3L21.9-36.3 12.12-36.3ZM22.92-6Q27.12-6 29.04-7.5 30.96-9 30.96-12.18L30.96-12.18Q30.96-15.36 29.01-16.92 27.06-18.48 22.92-18.48L22.92-18.48 12.12-18.48 12.12-6 22.92-6ZM68.1-8.04Q69.12-8.04 69.75-7.26 70.38-6.48 70.38-5.16L70.38-5.16Q70.38-3.3 68.16-2.04L68.16-2.04Q66.12-0.9 63.54-0.21 60.96 0.48 58.62 0.48L58.62 0.48Q51.54 0.48 47.4-3.6 43.26-7.68 43.26-14.76L43.26-14.76Q43.26-19.26 45.06-22.74 46.86-26.22 50.13-28.14 53.4-30.06 57.54-30.06L57.54-30.06Q61.5-30.06 64.44-28.32 67.38-26.58 69-23.4 70.62-20.22 70.62-15.9L70.62-15.9Q70.62-13.32 68.34-13.32L68.34-13.32 50.64-13.32Q51-9.18 52.98-7.23 54.96-5.28 58.74-5.28L58.74-5.28Q60.66-5.28 62.13-5.76 63.6-6.24 65.46-7.08L65.46-7.08Q67.26-8.04 68.1-8.04L68.1-8.04ZM57.72-24.78Q54.66-24.78 52.83-22.86 51-20.94 50.64-17.34L50.64-17.34 64.2-17.34Q64.08-21 62.4-22.89 60.72-24.78 57.72-24.78L57.72-24.78ZM93.6-30.06Q97.38-30.06 100.35-28.14 103.32-26.22 104.97-22.71 106.62-19.2 106.62-14.64L106.62-14.64Q106.62-10.08 104.97-6.66 103.32-3.24 100.38-1.38 97.44 0.48 93.6 0.48L93.6 0.48Q90.48 0.48 88.02-0.84 85.56-2.16 84.24-4.5L84.24-4.5 84.24 7.74Q84.24 9.3 83.22 10.2 82.2 11.1 80.52 11.1L80.52 11.1Q78.84 11.1 77.79 10.14 76.74 9.18 76.74 7.62L76.74 7.62 76.74-26.4Q76.74-28.02 77.73-28.98 78.72-29.94 80.4-29.94L80.4-29.94Q82.08-29.94 83.1-28.98 84.12-28.02 84.12-26.4L84.12-26.4 84.12-24.9Q85.44-27.36 87.93-28.71 90.42-30.06 93.6-30.06L93.6-30.06ZM91.62-5.34Q95.16-5.34 97.14-7.77 99.12-10.2 99.12-14.64L99.12-14.64Q99.12-19.2 97.14-21.72 95.16-24.24 91.62-24.24L91.62-24.24Q88.02-24.24 86.07-21.78 84.12-19.32 84.12-14.76L84.12-14.76Q84.12-10.26 86.07-7.8 88.02-5.34 91.62-5.34L91.62-5.34ZM130.92 0.54Q122.22 0.54 117.72-3.96 113.22-8.46 113.22-17.1L113.22-17.1 113.22-38.76Q113.22-40.5 114.24-41.55 115.26-42.6 117-42.6L117-42.6Q118.74-42.6 119.76-41.55 120.78-40.5 120.78-38.76L120.78-38.76 120.78-16.68Q120.78-11.22 123.36-8.43 125.94-5.64 130.92-5.64L130.92-5.64Q135.84-5.64 138.42-8.46 141-11.28 141-16.68L141-16.68 141-38.76Q141-40.5 142.02-41.55 143.04-42.6 144.78-42.6L144.78-42.6Q146.52-42.6 147.54-41.55 148.56-40.5 148.56-38.76L148.56-38.76 148.56-17.1Q148.56-8.52 144.06-3.99 139.56 0.54 130.92 0.54L130.92 0.54ZM161.28 0.36Q159.54 0.36 158.49-0.72 157.44-1.8 157.44-3.54L157.44-3.54 157.44-38.76Q157.44-40.5 158.49-41.55 159.54-42.6 161.28-42.6L161.28-42.6Q163.08-42.6 164.13-41.55 165.18-40.5 165.18-38.76L165.18-38.76 165.18-3.54Q165.18-1.8 164.13-0.72 163.08 0.36 161.28 0.36L161.28 0.36Z" transform="translate(-4.559999942779541, 42.599998474121094)"></path>
                    </g>
                </g>
            </g>
            </g>
        </g>
    </g>
    <defs v-gra="od">
        <linearGradient x1="0" y1="1" x2="1" y2="0" id="9049399f-2cd6-4988-95a2-d5dd8056511e">
            <stop offset="0%" stop-color="#409eff"></stop>
            <stop offset="100%" stop-color="#00bd7e"></stop>
        </linearGradient>
        <filter id="42443b3f1de60f6b6fd3b6a9844b4764" filterUnits="objectBoundingBox">
            <feColorMatrix type="matrix" values="0 0 0 0 0.99609375  0 0 0 0 0.99609375  0 0 0 0 0.99609375  0 0 0 1 0"></feColorMatrix>
        </filter>
    </defs>
</svg>